<svg width="75.000000" height="72.000000" viewBox="0 0 75 72" fill="none" xmlns="http://www.w3.org/2000/svg" xmlns:xlink="http://www.w3.org/1999/xlink">
	<desc>
			Created with Pixso.
	</desc>
	<defs/>
	<path d="M72.39 39.3L74.5 37.2L64.56 27.3L64.56 0L50.6 0L50.6 13.6L36.94 0L-0.5 37.2L1.6 39.3L9.43 31.5L9.43 69.1L5.42 69.1L5.42 72L69.58 72L69.58 69.1L64.45 69.1L64.45 31.5L72.39 39.3ZM61.54 24.39L53.61 16.5L53.61 2.89L61.54 2.89L61.54 24.39ZM61.54 69.1L12.35 69.1L12.35 28.5L36.94 4.1L61.54 28.5L61.54 69.1ZM29.31 27.1C29.31 31.39 32.83 34.8 37.05 34.8C41.36 34.8 44.88 31.3 44.88 27.1C44.88 22.8 41.36 19.39 37.05 19.39C32.83 19.39 29.31 22.8 29.31 27.1ZM37.15 22.1C39.86 22.1 42.17 24.3 42.17 27C42.17 29.7 39.96 31.89 37.15 31.89C34.43 31.89 32.13 29.7 32.13 27C32.13 24.3 34.33 22.1 37.15 22.1ZM19.47 41.2L16.46 41.2L16.46 45.1L19.47 45.1L19.47 41.2ZM25.4 41.2L22.39 41.2L22.39 45.1L25.4 45.1L25.4 41.2ZM29.11 65L45.18 65L45.18 41.2L29.11 41.2L29.11 65ZM51.5 41.2L48.49 41.2L48.49 45.1L51.5 45.1L51.5 41.2ZM57.43 41.2L54.41 41.2L54.41 45.1L57.43 45.1L57.43 41.2ZM32.03 44.1L42.17 44.1L42.17 62.1L32.03 62.1L32.03 44.1ZM19.47 47.2L16.46 47.2L16.46 51.1L19.47 51.1L19.47 47.2ZM25.4 47.2L22.39 47.2L22.39 51.1L25.4 51.1L25.4 47.2ZM51.5 47.2L48.49 47.2L48.49 51.1L51.5 51.1L51.5 47.2ZM57.43 47.2L54.41 47.2L54.41 51.1L57.43 51.1L57.43 47.2Z" fill="#83B3D3" fill-opacity="1.000000" fill-rule="evenodd"/>
</svg>
