<svg width="74.000000" height="70.000000" viewBox="0 0 74 70" fill="none" xmlns="http://www.w3.org/2000/svg" xmlns:xlink="http://www.w3.org/1999/xlink">
	<desc>
			Created with Pixso.
	</desc>
	<defs/>
	<path d="M4.6 31.5L68.47 31.5C68.47 30.89 68.57 30.3 68.57 29.6L68.57 28.39C67.87 12.7 53.83 0 36.59 0C19.24 0 5.21 12.7 4.51 28.5L4.51 29.7L4.51 29.77C4.51 30.34 4.51 30.92 4.6 31.5ZM36.59 3C52.23 3 65.06 14.3 65.66 28.5L7.52 28.5C8.12 14.39 20.95 3 36.59 3ZM28.77 12.2C29.82 12.2 30.67 11.3 30.67 10.2C30.67 9.09 29.82 8.19 28.77 8.19C27.72 8.19 26.86 9.09 26.86 10.2C26.86 11.3 27.72 12.2 28.77 12.2ZM46.21 10.2C46.21 11.3 45.36 12.2 44.31 12.2C43.26 12.2 42.4 11.3 42.4 10.2C42.4 9.09 43.26 8.19 44.31 8.19C45.36 8.19 46.21 9.09 46.21 10.2ZM38.49 15.3C38.49 16.4 37.64 17.29 36.59 17.29C35.54 17.29 34.68 16.4 34.68 15.3C34.68 14.19 35.54 13.3 36.59 13.3C37.64 13.3 38.49 14.19 38.49 15.3ZM20.55 42.5L15.13 38.39L9.82 42.5L3.61 37.8L5.31 35.3L9.82 38.7L15.13 34.6L20.55 38.7L25.86 34.6L31.17 38.7L36.49 34.6L41.9 38.7L47.21 34.6L52.53 38.7L57.94 34.6L63.25 38.7L67.77 35.3L69.47 37.8L63.25 42.5L57.94 38.39L52.53 42.5L47.21 38.39L41.9 42.5L36.49 38.39L31.17 42.5L25.86 38.39L20.55 42.5ZM69.57 46.7L3.61 46.7C1.3 46.7 -0.5 48.6 -0.5 51L-0.5 54.5C-0.5 56.89 1.4 58.8 3.61 58.8L4.51 58.8L4.51 59.89C4.51 65.39 8.82 70 14.13 70L58.84 70C64.16 70 68.47 65.5 68.47 59.89L68.47 58.8L69.37 58.8C71.68 58.8 73.48 56.89 73.48 54.5L73.48 51C73.68 48.7 71.78 46.7 69.57 46.7ZM70.77 54.5C70.77 55.2 70.17 55.8 69.57 55.8L3.51 55.8C2.8 55.8 2.3 55.2 2.3 54.5L2.3 51C2.3 50.3 2.9 49.7 3.51 49.7L69.47 49.7C70.17 49.7 70.67 50.3 70.67 51C70.77 51 70.77 54.5 70.77 54.5ZM65.66 59.89C65.66 63.8 62.65 66.89 58.94 66.89L14.13 66.89C10.42 66.89 7.41 63.7 7.41 59.89L7.41 58.8L65.66 58.8L65.66 59.89Z" fill="#83B3D3" fill-opacity="1.000000" fill-rule="evenodd"/>
</svg>
