<svg width="64.000000" height="76.000000" viewBox="0 0 64 76" fill="none" xmlns="http://www.w3.org/2000/svg" xmlns:xlink="http://www.w3.org/1999/xlink">
	<desc>
			Created with Pixso.
	</desc>
	<defs/>
	<path d="M60.6 22.46L60.5 22.46L35.8 22.46C49.6 15.55 50.7 11.15 50.2 8.75C49 4.75 44.5 1.74 40.2 3.34C34.6 5.45 33.1 13.75 31.6 19.76C29.6 13.65 27.8 5.95 23.39 2.04C22.1 0.94 20.29 -0.26 17.6 0.04C13.6 0.44 7.8 5.45 10.1 11.05C12.39 16.45 19.79 19.86 24.7 22.56L2.69 22.56L2.39 22.56C0.8 22.56 -0.5 23.86 -0.5 25.46L-0.5 36.77C-0.5 38.37 0.8 39.67 2.39 39.67L2.69 39.67L2.69 72.99L2.69 75.39L2.69 76L60.5 76L60.5 75.49L60.5 72.99L60.5 39.57L60.6 39.57C62.2 39.57 63.5 38.27 63.5 36.67L63.5 25.36C63.5 23.76 62.2 22.46 60.6 22.46ZM41.89 5.85C44 5.55 46.89 7.15 47.2 9.05C47.6 11.85 43.8 14.35 42.1 15.45C39.6 17.15 37.2 18.05 34.8 19.56C35.7 15.85 37.3 6.55 41.89 5.85ZM19 15.85C16.79 14.35 12.5 11.45 12.6 8.05C12.7 4.44 18.29 1.44 21.39 4.14C25.3 7.55 27.1 15.25 28.5 20.76C25.3 19.26 22.2 17.95 19 15.85ZM25 72.99L5.6 72.99L5.6 39.57L25 39.57L25 72.99ZM25 36.47L2.5 36.47L2.5 25.46L25 25.46L25 36.47ZM35.2 36.47L35.2 39.47L35.2 72.99L28 72.99L28 39.57L28 36.57L28 25.56L35.2 25.56L35.2 36.47ZM57.5 72.99L38.1 72.99L38.1 39.57L57.5 39.57L57.5 72.99ZM60.39 36.47L38.1 36.47L38.1 25.46L60.39 25.46L60.39 36.47Z" fill="#83B3D3" fill-opacity="1.000000" fill-rule="nonzero"/>
</svg>
