<svg width="44.000000" height="64.000000" viewBox="0 0 44 64" fill="none" xmlns="http://www.w3.org/2000/svg" xmlns:xlink="http://www.w3.org/1999/xlink">
	<desc>
			Created with Pixso.
	</desc>
	<defs>
		<clipPath id="clip3_451">
			<rect id="icons/heart" width="20.000000" height="20.000000" transform="translate(12.000000 22.000000)" fill="white" fill-opacity="0"/>
		</clipPath>
	</defs>
	<g clip-path="url(#clip3_451)">
		<path id="Vector" d="M21.8999 41C21.6001 41 21.3 40.9 21.1001 40.6C15.7 34.5 14.3999 33.1 14.1001 32.7C13.3999 31.8 13 30.6 13 29.4C13 26.4 15.3999 24 18.5 24C19.8 24 21 24.5 22 25.3C23 24.5 24.3 24 25.5 24C28.5 24 31 26.4 31 29.4C31 30.7 30.5 31.9 29.7 32.8L22.7 40.7C22.5 40.9 22.3 41 21.8999 41ZM15.8999 31.5C16.2 31.9 19.3999 35.5 22 38.4L28.2 31.4C28.7 30.9 28.8999 30.2 28.8999 29.4C28.8999 27.6 27.3999 26.1 25.6001 26.1C24.6001 26.1 23.6001 26.6 22.8999 27.4C22.6001 27.7 22.3 27.8 22 27.8C21.7 27.8 21.3999 27.6 21.2 27.4C20.5 26.6 19.5 26.1 18.5 26.1C16.7 26.1 15.2 27.6 15.2 29.4C15.1001 30.3 15.5 31 15.8999 31.5Z" fill="#000000" fill-opacity="1.000000" fill-rule="nonzero"/>
	</g>
</svg>
