<svg width="48.000000" height="40.000000" viewBox="0 0 48 40" fill="none" xmlns="http://www.w3.org/2000/svg" xmlns:xlink="http://www.w3.org/1999/xlink">
	<desc>
			Created with Pixso.
	</desc>
	<defs/>
	<rect id="social-vk" width="47.333332" height="40.000000" transform="translate(0.000000 -0.143555)" fill="#FFFFFF" fill-opacity="0"/>
	<path id="Vector" d="M35.11 13.8C35.28 13.25 35.11 12.85 34.32 12.85L31.69 12.85C31.02 12.85 30.72 13.2 30.55 13.58C30.55 13.58 29.21 16.78 27.32 18.85C26.71 19.46 26.43 19.65 26.1 19.65C25.93 19.65 25.68 19.46 25.68 18.91L25.68 13.8C25.68 13.14 25.5 12.85 24.94 12.85L20.81 12.85C20.4 12.85 20.14 13.16 20.14 13.44C20.14 14.07 21.09 14.21 21.19 15.96L21.19 19.76C21.19 20.59 21.03 20.74 20.7 20.74C19.81 20.74 17.65 17.53 16.36 13.85C16.11 13.14 15.86 12.85 15.19 12.85L12.56 12.85C11.81 12.85 11.66 13.2 11.66 13.58C11.66 14.26 12.55 17.65 15.81 22.13C17.98 25.19 21.03 26.85 23.81 26.85C25.48 26.85 25.69 26.48 25.69 25.85L25.69 23.54C25.69 22.8 25.85 22.65 26.38 22.65C26.77 22.65 27.43 22.84 28.99 24.32C30.77 26.07 31.06 26.85 32.07 26.85L34.69 26.85C35.44 26.85 35.82 26.48 35.6 25.76C35.36 25.03 34.51 23.98 33.39 22.73C32.77 22.02 31.86 21.26 31.58 20.88C31.19 20.38 31.3 20.17 31.58 19.73C31.58 19.73 34.78 15.3 35.11 13.8L35.11 13.8Z" fill="#83B3D3" fill-opacity="1.000000" fill-rule="evenodd"/>
</svg>
