<svg width="47.000000" height="40.000000" viewBox="0 0 47 40" fill="none" xmlns="http://www.w3.org/2000/svg" xmlns:xlink="http://www.w3.org/1999/xlink">
	<desc>
			Created with Pixso.
	</desc>
	<defs/>
	<rect id="social-telegram" width="47.333332" height="40.000000" transform="translate(-0.666626 -0.143555)" fill="#FFFFFF" fill-opacity="0"/>
	<rect id="Social" width="18.000000" height="16.000000" transform="translate(14.000000 11.856445)" fill="#FFFFFF" fill-opacity="0"/>
	<path id="Vector" d="M30.78 11.95L14.84 18.1C13.75 18.54 13.75 19.14 14.64 19.41L18.73 20.69L28.2 14.72C28.65 14.44 29.06 14.59 28.72 14.89L21.05 21.81L21.05 21.81L21.05 21.81L20.77 26.03C21.18 26.03 21.36 25.84 21.59 25.62L23.58 23.69L27.72 26.74C28.48 27.16 29.03 26.95 29.22 26.04L31.93 13.24C32.21 12.13 31.51 11.62 30.78 11.95Z" fill="#83B3D3" fill-opacity="1.000000" fill-rule="nonzero"/>
</svg>
